HIERARCHY
ROOT Hips
{
  OFFSET 13.6774 106.653 -34.4427
  CHANNELS 6 Xposition Yposition Zposition Zrotation Xrotation Yrotation
  JOINT ToSpine
  {
    OFFSET -2.69724 7.43032 -0.144315
    CHANNELS 3 Zrotation Xrotation Yrotation
    JOINT Spine
    {
      OFFSET -0.0310711 10.7595 1.96963
      CHANNELS 3 Zrotation Xrotation Yrotation
      JOINT Spine1
      {
        OFFSET 19.9056 3.91189 0.764692
        CHANNELS 3 Zrotation Xrotation Yrotation
        JOINT Neck
        {
          OFFSET 25.9749 7.03908 -0.130764
          CHANNELS 3 Zrotation Xrotation Yrotation
          JOINT Head
          {
            OFFSET 9.52751 0.295786 -0.907742
            CHANNELS 3 Zrotation Xrotation Yrotation
            End Site
            {
              OFFSET 16.4037 0.713936 2.7358
            }
          }
        }
        JOINT LeftShoulder
        {
          OFFSET 17.7449 4.33886 11.7777
          CHANNELS 3 Zrotation Xrotation Yrotation
          JOINT LeftArm
          {
            OFFSET 0.911315 1.27913 9.80584
            CHANNELS 3 Zrotation Xrotation Yrotation
            JOINT LeftForeArm
            {
              OFFSET 28.6126 1.18197 -3.53199
              CHANNELS 3 Zrotation Xrotation Yrotation
              JOINT LeftHand
              {
                OFFSET 27.5088 0.0218783 0.327423
                CHANNELS 3 Zrotation Xrotation Yrotation
                End Site
                {
                  OFFSET 18.6038 -0.000155887 0.382096
                }
              }
            }
          }
        }
        JOINT RightShoulder
        {
          OFFSET 17.1009 2.89543 -12.2328
          CHANNELS 3 Zrotation Xrotation Yrotation
          JOINT RightArm
          {
            OFFSET 1.4228 0.178766 -10.211
            CHANNELS 3 Zrotation Xrotation Yrotation
            JOINT RightForeArm
            {
              OFFSET 28.733 1.87905 2.64907
              CHANNELS 3 Zrotation Xrotation Yrotation
              JOINT RightHand
              {
                OFFSET 27.4588 0.290562 -0.101845
                CHANNELS 3 Zrotation Xrotation Yrotation
                End Site
                {
                  OFFSET 17.8396 -0.255518 -0.000602873
                }
              }
            }
          }
        }
      }
    }
  }
  JOINT LeftUpLeg
  {
    OFFSET -5.61296 -2.22332 -10.2353
    CHANNELS 3 Zrotation Xrotation Yrotation
    JOINT LeftLeg
    {
      OFFSET 2.56703 -44.7417 -7.93097
      CHANNELS 3 Zrotation Xrotation Yrotation
      JOINT LeftFoot
      {
        OFFSET 3.16933 -46.5642 -3.96578
        CHANNELS 3 Zrotation Xrotation Yrotation
        JOINT LeftToeBase
        {
          OFFSET 0.346054 -6.02161 12.8035
          CHANNELS 3 Zrotation Xrotation Yrotation
          End Site
          {
            OFFSET 0.134235 -1.35082 5.13018
          }
        }
      }
    }
  }
  JOINT RightUpLeg
  {
    OFFSET -5.7928 -1.72406 10.6446
    CHANNELS 3 Zrotation Xrotation Yrotation
    JOINT RightLeg
    {
      OFFSET -2.57161 -44.7178 -7.85259
      CHANNELS 3 Zrotation Xrotation Yrotation
      JOINT RightFoot
      {
        OFFSET -3.10148 -46.5936 -4.03391
        CHANNELS 3 Zrotation Xrotation Yrotation
        JOINT RightToeBase
        {
          OFFSET -0.0828122 -6.13587 12.8035
          CHANNELS 3 Zrotation Xrotation Yrotation
          End Site
          {
            OFFSET -0.131328 -1.35082 5.13018
          }
        }
      }
    }
  }
}
MOTION
Frames: 21
Frame Time: 0.03333333333333333
0.0000 93.1000 0.0000 78.4073 1.8657 29.6953 -70.4701 -0.1851 87.5145 111.0953 66.2744 -35.7031 -7.9291 14.8273 10.5071 -114.6119 23.1662 146.0643 179.1126 73.5394 -143.8593 0.5658 -9.5514 -13.3389 -58.2491 36.6576 -139.0189 22.3855 -6.2841 -101.7156 0.5645 -0.4204 0.4461 -1.3623 6.2378 29.6846 -96.8471 -5.4137 45.2392 6.7056 1.1745 100.5980 -0.0775 0.7221 0.4113 -51.5039 32.0597 115.1063 -1.4310 41.9953 12.4899 -0.7292 -11.0738 -0.5881 1.9312 -5.9927 1.2311 -33.5652 -3.7588 67.0058 37.5011 81.6887 -16.1445 2.3496 5.8317 -2.3984 3.0550 -20.8936 -36.9885 
0.0000 93.1000 0.0000 80.4400 0.8378 24.0008 -70.4878 0.3142 87.2857 105.2606 66.9703 -30.7867 -5.6221 15.1979 8.6133 -112.6399 23.9617 143.5457 177.1921 73.9528 -140.6205 1.2443 -10.5518 -13.0992 -57.0055 34.8871 -141.9762 20.9798 -4.8374 -101.4487 0.4186 -0.0542 -0.0966 -0.6753 5.7860 28.1144 -101.7405 -0.5932 49.1032 9.0572 1.3103 100.6724 -0.0785 0.1576 0.0799 -50.4944 26.7861 110.0464 -2.6385 50.0306 9.3429 -0.4858 -2.9547 -0.6552 2.5133 -7.2653 0.8975 -41.8915 -1.7912 60.3830 10.7064 66.7673 18.1512 8.0037 10.3261 -3.4902 3.0362 -12.2943 -30.1543 
0.0000 93.1000 0.0000 80.1593 -1.0449 19.0676 -70.5916 0.3304 87.2310 97.0521 67.7045 -23.0949 -3.6770 15.9486 6.8401 -112.4619 26.0877 144.9033 174.0355 75.0725 -138.5015 0.8285 -11.5608 -12.2742 -56.9305 32.8289 -145.0599 21.1602 -5.0791 -100.7089 0.1168 -0.1777 0.0402 -0.7569 4.8033 28.6631 -109.8571 2.2940 54.2157 12.1728 2.1003 101.8846 -0.2887 0.1761 0.0356 -47.2878 22.0288 103.2842 -4.7737 60.1095 1.5641 -0.9452 1.1880 -0.3149 1.0073 -4.3784 1.9767 -47.6984 0.0699 57.4121 6.1378 51.7507 22.6647 12.1995 14.4056 -4.8138 2.6224 -6.6525 -21.5955 
0.0000 93.1000 0.0000 80.3730 -3.0267 12.4639 -70.5644 0.3293 87.2699 92.9624 68.1877 -20.5562 -2.9887 16.7122 5.7175 -114.3481 29.1560 146.2787 168.0726 75.8446 -134.5267 0.9148 -12.0814 -12.4428 -57.1671 31.2998 -148.0396 20.0366 -4.8400 -100.5162 -0.0709 0.2953 -0.1807 -0.8306 4.3129 30.8907 -117.9210 4.4843 62.1701 13.7034 2.9607 102.9670 -0.0953 -0.5577 -0.4382 -45.7813 19.0865 98.9359 -6.6205 64.9359 -2.5775 -1.3819 0.4716 -0.5036 0.8740 -2.9199 2.8561 -52.3001 1.7228 61.3152 4.1685 40.4560 20.7915 13.5793 13.5948 -4.9565 3.0875 -5.7057 -23.3060 
0.0000 93.1000 0.0000 80.1468 -6.9725 6.5709 -70.4654 -0.2301 87.2555 92.1554 68.5493 -18.4809 -3.2310 17.4679 4.2810 -119.4836 32.7254 151.6333 158.2249 76.4561 -126.3194 0.2526 -12.6074 -13.4852 -59.2588 30.3373 -148.5799 19.3347 -4.1656 -99.6593 0.0544 -0.1190 0.0650 -1.5429 4.2263 33.8521 -124.9962 4.2727 71.3136 14.3729 3.9314 103.9250 0.0864 -0.0934 0.0266 -45.7424 18.0223 98.0710 -6.8757 64.8885 -0.3771 -1.5265 -0.9260 -0.4948 1.5794 -6.7096 5.1756 -54.0297 2.2556 69.3641 1.7105 35.5319 10.0656 7.2770 7.7693 -3.0241 1.2097 -9.5405 -13.7981 
0.0000 93.1000 0.0000 79.8927 -12.1240 2.3293 -70.5149 0.1714 87.4075 91.9858 68.8230 -16.5366 -2.9690 17.8762 4.1846 -127.6305 36.7524 156.4592 150.4855 77.4447 -125.2723 0.2997 -13.0430 -15.5325 -63.1323 29.7729 -148.4627 20.9809 -3.9689 -98.7058 -0.0908 0.0113 -0.2043 -1.9013 5.1083 36.7758 -130.7035 2.2051 80.5427 14.4588 3.8833 103.9044 0.3311 -0.2732 -0.2589 -47.3703 19.8284 98.2691 -4.8903 61.8534 2.8758 -1.4363 -0.1310 -0.4647 1.2776 -6.8021 6.9780 -52.8226 2.0015 78.0218 0.5920 36.8463 1.9865 0.4810 -0.1981 -0.6616 0.9824 -10.0367 -7.7046 
0.0000 93.1000 0.0000 77.8488 -16.3059 -1.8620 -70.5236 -0.0011 87.4762 91.0371 69.1926 -14.2511 -2.7605 17.3455 6.1301 -133.6224 39.2463 161.6061 150.0608 78.6677 -127.9335 -0.3075 -13.1703 -18.8033 -65.8629 28.7509 -148.2576 20.9321 -3.8350 -97.8355 -0.0813 -0.2785 -0.0366 -2.3490 5.6862 39.8508 -133.1077 -0.2068 89.1148 15.8934 3.1726 101.8109 0.2202 -0.1435 -0.1380 -47.8736 22.0803 97.8385 -2.9637 57.6877 7.2955 -1.4620 1.1905 0.0004 0.1449 -3.8704 6.9145 -49.3887 0.7755 83.3646 2.3291 39.9926 7.5894 -1.1289 -7.3853 -0.0664 3.1718 -8.7500 -21.2989 
0.0000 93.1000 0.0000 75.6826 -21.0714 -3.8405 -70.4649 -0.0185 87.4789 91.0083 69.1000 -11.7756 -2.3943 16.8871 7.6865 -137.5481 39.9352 165.4991 150.1934 78.1898 -129.7550 -0.3057 -14.1954 -20.3220 -68.1780 29.7709 -147.2768 20.8416 -3.0171 -96.6409 -0.0505 -0.2738 -0.0786 -2.4146 6.6049 40.4119 -134.6937 -4.5779 94.7093 16.8767 2.1303 98.7063 0.1498 -0.0517 -0.1786 -48.7690 24.5221 97.2910 -1.6076 53.6137 8.6123 -0.8543 2.6829 0.0804 -0.2489 -2.9635 7.9791 -45.9408 -1.8696 83.4775 3.4044 41.0361 10.1880 -2.8844 -12.2398 0.5580 2.8561 -6.2040 -24.8300 
0.0000 93.1000 0.0000 74.7846 -25.3055 -5.5603 -70.6159 0.0929 87.5144 93.0401 69.0314 -13.8594 -3.4032 16.7455 8.2748 -136.6139 38.9161 163.3731 158.7551 78.0259 -137.4653 -0.4481 -14.8594 -20.7872 -69.1087 29.5269 -146.2934 22.1032 -3.1393 -96.1575 -0.0009 -0.1359 -0.0252 -2.7993 6.6287 44.1908 -134.6184 -6.0565 101.2513 15.7900 0.9972 94.7495 -0.2116 -0.0905 -0.1680 -51.4589 24.6690 97.2824 -1.4108 50.8496 7.3077 -1.6400 4.8273 0.2264 1.3026 -7.5417 9.1068 -41.3967 -3.7068 84.9957 3.2938 46.2374 11.0784 -6.1290 -13.9422 0.8898 2.4504 -9.1173 -26.5683 
0.0000 93.1000 0.0000 72.6816 -28.9094 -8.8561 -70.6154 0.5374 87.4265 99.0671 68.6385 -17.4517 -3.3258 16.7090 7.5258 -134.7697 37.4114 160.3625 162.7566 77.9198 -141.9343 0.0699 -15.8837 -22.1244 -71.1121 28.1695 -146.3090 23.3216 -2.8332 -95.3719 -0.0498 0.3001 -0.1674 -2.8699 7.1131 47.3748 -134.3217 -5.7193 106.3094 15.1072 0.0856 90.5760 -0.1136 -0.2788 -0.2082 -53.4551 23.9229 97.9177 -1.9206 49.9170 5.3775 -3.6860 2.6080 0.0399 2.6834 -9.3779 10.6002 -36.4732 -4.9273 88.0073 5.3053 52.0983 12.8952 -7.7149 -14.0332 1.2691 2.5526 -14.4431 -31.6575 
0.0000 93.1000 0.0000 73.0568 -31.2892 -10.0808 -70.5439 0.4550 87.3722 102.1306 68.1756 -18.9325 -2.9299 17.2465 6.8420 -134.6882 36.7566 160.6278 166.4535 77.9587 -144.3600 0.4754 -16.2796 -22.6612 -72.0902 27.6498 -146.2627 23.9374 -3.0641 -95.4655 -0.0597 0.4802 -0.2348 -2.9927 7.2631 46.9377 -133.6030 -7.6545 108.0809 14.5766 -1.2950 85.7743 -0.1848 -0.3554 -0.4080 -54.6014 23.5909 99.2603 -3.3852 50.7833 5.2004 -6.5882 -2.0525 -0.1897 4.5489 -12.3040 10.1517 -33.2796 -6.2172 89.3438 4.7545 55.0303 15.3303 -7.3409 -14.0153 1.1538 2.9844 -14.2397 -33.6628 
0.0000 93.1000 0.0000 72.6980 -33.2657 -10.3749 -70.5507 0.4342 87.4025 101.9025 68.2445 -17.5149 -1.8267 17.3388 6.4999 -133.7979 36.5357 159.9299 166.9062 78.2479 -144.1347 0.6091 -17.1690 -23.4624 -72.2296 27.4269 -147.2259 25.8233 -3.0058 -95.5335 -0.0953 0.4587 -0.4729 -3.0410 7.9633 45.8423 -133.5262 -8.9840 108.2933 13.3218 -2.6483 80.8554 0.1114 -0.6950 -0.5913 -55.3424 23.1483 102.2334 -2.8981 51.8213 5.0988 -7.7948 -4.8020 -0.4947 7.6021 -18.3560 8.2673 -31.0769 -7.7873 90.3463 6.2876 56.9414 12.1277 -7.1238 -13.3178 1.4235 2.0369 -12.7201 -27.6814 
0.0000 93.1000 0.0000 72.7564 -34.1279 -11.2658 -70.3962 0.3034 87.3353 102.0965 68.5819 -18.8084 -1.7980 17.8700 6.4936 -131.7378 35.5359 158.6486 169.5173 78.2005 -148.0801 0.4998 -17.5070 -24.0912 -71.2868 26.6018 -147.1804 25.4466 -2.8965 -94.5148 -0.0748 0.2657 0.0080 -3.0452 7.2387 45.7372 -134.5509 -9.4179 107.9813 11.6159 -2.9241 77.4408 0.0293 -0.1234 -0.1285 -56.5781 23.6603 104.6301 -3.2338 51.6418 4.3275 -7.4346 -7.9801 -0.8916 8.8170 -19.7523 9.2958 -30.5188 -8.9860 90.0332 6.3749 57.0991 14.1315 -5.8927 -11.9042 1.1583 1.8708 -13.0317 -25.9340 
0.0000 93.1000 0.0000 72.8716 -34.1286 -10.8456 -70.3630 0.2100 87.2838 102.9427 68.9031 -19.1971 -1.8418 18.0115 6.4610 -129.7545 35.7282 156.5326 172.8018 78.9863 -150.0797 0.1203 -17.9684 -24.4062 -69.4309 26.5253 -148.3636 26.3803 -2.9632 -94.3545 0.0810 0.1730 -0.0194 -2.9870 7.1798 45.6688 -134.3895 -8.9949 107.9170 9.7864 -2.9541 74.3865 0.0333 0.0022 -0.0524 -56.5338 23.6994 106.7739 -3.8674 52.9677 2.4973 -7.1356 -11.0291 -1.0823 9.0697 -19.6175 11.5374 -30.4185 -10.9850 89.8968 6.5135 57.0685 16.1431 -5.8825 -9.9552 0.8213 2.0777 -14.5590 -25.0755 
0.0000 93.1000 0.0000 72.8576 -33.9159 -10.3202 -70.2900 0.1806 87.3369 100.7940 69.1123 -17.0119 -1.2947 18.0253 5.9526 -128.7762 35.6050 155.8993 169.9258 79.2696 -147.9272 -0.1228 -18.2053 -24.1407 -68.0754 26.5820 -148.2940 27.0234 -3.0002 -94.5676 0.2364 -0.1129 0.0826 -3.0768 6.9927 46.0431 -135.3643 -8.2560 107.0792 8.9331 -3.0523 73.5969 -0.1486 0.5255 0.1573 -56.5963 23.8302 109.1697 -4.1096 52.7518 0.4665 -6.7829 -12.3720 -1.1199 8.7879 -18.9672 12.8612 -30.0898 -12.2349 89.2840 6.4564 55.9237 17.6086 -5.4389 -10.0655 0.5912 2.0331 -13.0754 -23.4362 
0.0000 93.1000 0.0000 73.0222 -33.3797 -10.4336 -70.3036 0.2728 87.2643 98.8689 69.0852 -15.9529 -1.0331 17.9799 6.3635 -128.7512 35.6903 156.9010 171.7568 79.0688 -147.8036 0.0916 -18.2306 -24.2610 -67.2081 26.4183 -149.4274 26.4096 -3.0973 -94.6015 -0.0589 0.2512 -0.2922 -2.9768 7.1909 46.0040 -136.3824 -7.7810 105.9429 9.3260 -2.8710 73.6267 -0.0239 -0.3055 -0.2023 -56.5782 23.9243 110.0540 -4.5687 53.6006 0.1744 -5.1518 -12.7232 -1.6715 8.4824 -18.9541 13.1435 -30.0749 -13.6396 88.4840 6.1703 55.0768 18.7357 -4.0557 -9.0174 0.1683 1.8702 -12.7993 -21.5075 
0.0000 93.1000 0.0000 72.9641 -32.8986 -10.1880 -70.3571 0.3057 87.2271 99.7565 69.0508 -16.5901 -0.9353 18.1342 7.0463 -127.8573 35.9569 156.1095 172.3987 79.2020 -147.9348 0.3107 -18.1435 -24.4796 -66.2343 26.3823 -149.5023 26.3446 -3.1242 -94.4832 0.0143 0.3500 -0.2125 -3.0455 7.0466 46.2958 -137.2900 -7.2277 105.7185 8.5482 -2.8075 73.4567 0.0903 -0.4370 -0.3454 -55.7884 23.8330 111.0922 -4.7801 54.7834 -1.5601 -4.7335 -13.6714 -1.9799 8.2258 -18.8281 14.2276 -30.1918 -14.9274 88.0485 5.0364 54.0344 18.5960 -3.7897 -7.1488 0.0954 1.6957 -14.0718 -18.8135 
0.0000 93.1000 0.0000 72.7503 -32.1377 -10.1994 -70.3757 0.3749 87.3008 99.8672 69.0687 -17.7055 -1.3778 17.8873 7.3012 -126.8789 36.1233 155.7374 172.0797 79.8948 -148.0075 0.2002 -17.9776 -23.4448 -66.2334 25.6288 -150.6185 26.5421 -3.0046 -93.7512 -0.0842 0.1685 -0.1673 -3.0406 7.0009 46.7674 -137.3231 -5.2380 104.8396 7.8175 -3.1020 73.4564 0.1275 -0.2297 -0.1762 -55.8168 23.7112 111.7842 -4.7675 54.8315 -1.9320 -4.1063 -14.9477 -1.9896 8.1737 -18.7505 13.7896 -30.0837 -15.9264 86.9445 5.1469 53.1131 19.2895 -3.5759 -5.8984 0.0654 2.0988 -15.4549 -21.3474 
0.0000 93.1000 0.0000 72.7354 -31.1948 -9.0466 -70.3464 0.2907 87.3785 98.8140 69.7501 -16.7456 -1.2497 17.9052 6.7470 -126.8483 36.4086 155.2820 170.5721 80.2642 -147.4850 0.3467 -17.9257 -22.9982 -66.1019 25.5676 -151.5832 26.2688 -3.0830 -93.5952 -0.1125 0.2973 -0.2339 -2.9322 7.2532 46.8220 -139.1985 -4.0762 104.0639 7.7187 -3.0567 73.4286 0.1952 -0.4635 -0.3755 -54.7616 23.7754 111.3089 -4.6565 54.7802 -2.3761 -3.2634 -15.6503 -2.0814 7.9790 -17.9130 12.8674 -31.0769 -17.0123 86.0307 5.2421 52.1766 20.0300 -3.0734 -5.2092 -0.1181 1.9266 -14.9212 -21.2424 
0.0000 93.1000 0.0000 72.7759 -30.9377 -9.0813 -70.4003 -0.0412 87.4052 98.6886 69.8386 -15.7880 -1.3334 17.8870 6.7000 -126.9023 37.0068 153.9559 167.0240 80.1721 -143.6967 -0.0537 -17.9642 -22.9023 -65.3863 25.3357 -152.5909 26.2300 -3.0656 -93.8653 -0.1679 -0.0639 -0.0745 -3.1204 6.9761 45.8985 -140.2839 -3.9819 103.7309 7.7441 -2.6348 73.3959 0.0397 0.1317 -0.0359 -53.9507 23.6788 111.0115 -4.5854 55.4720 -3.0962 -3.5909 -15.7249 -1.9537 8.1481 -18.6901 13.6930 -31.1625 -17.9008 85.0757 5.2127 51.9175 20.2093 -2.2297 -4.8791 -0.3043 2.1329 -14.9122 -20.3584 
0.0000 93.1000 0.0000 72.6996 -29.9672 -8.0958 -70.4383 -0.0623 87.4428 97.7115 69.9225 -14.9581 -1.1655 18.0338 5.1906 -126.8531 36.9701 153.9522 166.7305 80.4657 -144.0228 -0.0611 -17.9262 -22.3344 -65.3765 25.3079 -152.6329 25.2592 -2.1614 -93.7405 -0.0443 -0.1342 0.2138 -3.1230 6.8682 45.7603 -141.3496 -3.4475 102.9014 8.8710 -3.1250 73.6080 -0.1778 0.4443 0.2925 -53.9121 22.6726 109.9574 -4.8801 55.5067 -2.8238 -3.8764 -16.3644 -1.7550 8.2135 -18.7724 14.0881 -31.9336 -19.0957 84.1426 4.9342 51.1237 20.2869 -2.8604 -4.0964 -0.2893 1.9151 -15.9902 -19.1388 
